<svg width="30" height="30" viewBox="0 0 30 30" fill="none" xmlns="http://www.w3.org/2000/svg">
<path fill-rule="evenodd" clip-rule="evenodd" d="M28.8125 6.69716C28.8125 9.84302 26.2705 12.3943 23.1361 12.3943C20.0017 12.3943 17.4611 9.84302 17.4611 6.69716C17.4611 3.5513 20.0017 1 23.1361 1C26.2705 1 28.8125 3.5513 28.8125 6.69716Z" stroke="#E8E8E8" stroke-width="1.5" stroke-linecap="round" stroke-linejoin="round"/>
<path fill-rule="evenodd" clip-rule="evenodd" d="M12.3515 6.69716C12.3515 9.84302 9.81084 12.3943 6.67504 12.3943C3.54202 12.3943 1 9.84302 1 6.69716C1 3.5513 3.54202 1 6.67504 1C9.81084 1 12.3515 3.5513 12.3515 6.69716Z" stroke="#E8E8E8" stroke-width="1.5" stroke-linecap="round" stroke-linejoin="round"/>
<path fill-rule="evenodd" clip-rule="evenodd" d="M28.8125 23.1167C28.8125 26.2626 26.2705 28.8125 23.1361 28.8125C20.0017 28.8125 17.4611 26.2626 17.4611 23.1167C17.4611 19.9708 20.0017 17.4195 23.1361 17.4195C26.2705 17.4195 28.8125 19.9708 28.8125 23.1167Z" stroke="#E8E8E8" stroke-width="1.5" stroke-linecap="round" stroke-linejoin="round"/>
<path fill-rule="evenodd" clip-rule="evenodd" d="M12.3515 23.1167C12.3515 26.2626 9.81084 28.8125 6.67504 28.8125C3.54202 28.8125 1 26.2626 1 23.1167C1 19.9708 3.54202 17.4195 6.67504 17.4195C9.81084 17.4195 12.3515 19.9708 12.3515 23.1167Z" stroke="#E8E8E8" stroke-width="1.5" stroke-linecap="round" stroke-linejoin="round"/>
</svg>
