<svg id="svgGlitch" class="none" width="35" height="44" viewBox="0 0 35 44" fill="none" xmlns="http://www.w3.org/2000/svg">
<path fill-rule="evenodd" clip-rule="evenodd" d="M3.25244 0L12.1309 10.8924H22.7771L31.8522 0V21.2693L35 27.9451L26.9184 33.694L32.429 27.9451L30.0232 22.8137L26.3216 27.9159V13.3033L30.0232 17.7474V5.56719L24.8297 11.6573L21.403 21.0386L13.9907 21.0626L10.369 11.6573L5.18861 5.4462V17.7474L8.87829 13.5468V27.9451L5.18861 22.8137L2.56644 27.9159L8.23494 33.694L0 27.9451L3.25244 21.4337V0Z" fill="white"/>
<path fill-rule="evenodd" clip-rule="evenodd" d="M12.4211 30.2141L13.913 23.5074H21.3222L22.5661 30.2141L18.5705 41.2032H20.2665L24.0297 36.4841L21.3222 43.097H13.913L11.2312 36.4841L14.8863 41.2032H16.5605L12.4211 30.2141Z" fill="white"/>
</svg>
