<svg width="30" height="30" viewBox="0 0 30 30" fill="none" xmlns="http://www.w3.org/2000/svg">
<path d="M15 6.18164C10.084 6.18164 6.08203 10.1836 6.08203 15.0996C6.08203 20.0156 10.084 24.0176 15 24.0176C19.916 24.0176 23.918 20.0156 23.918 15.0996C23.918 10.1777 19.916 6.18164 15 6.18164ZM15 21.6211C11.4023 21.6211 8.47266 18.6914 8.47266 15.0938C8.47266 11.4961 11.4023 8.56641 15 8.56641C18.5977 8.56641 21.5273 11.4961 21.5273 15.0938C21.5273 18.6914 18.5977 21.6211 15 21.6211Z" fill="#F2F2F2"/>
<path d="M15 4.38281C15.6621 4.38281 16.1953 3.84961 16.1953 3.1875V1.83984C16.1953 1.17773 15.6621 0.644531 15 0.644531C14.3379 0.644531 13.8047 1.17773 13.8047 1.83984V3.1875C13.8047 3.84961 14.3379 4.38281 15 4.38281Z" fill="#F2F2F2"/>
<path d="M15 25.6172C14.3379 25.6172 13.8047 26.1504 13.8047 26.8125V28.1543C13.8047 28.8164 14.3379 29.3496 15 29.3496C15.6621 29.3496 16.1953 28.8164 16.1953 28.1543V26.8125C16.1953 26.1562 15.6621 25.6172 15 25.6172Z" fill="#F2F2F2"/>
<path d="M28.1602 13.8047H26.8125C26.1504 13.8047 25.6172 14.3379 25.6172 15C25.6172 15.6621 26.1504 16.1953 26.8125 16.1953H28.1602C28.8223 16.1953 29.3555 15.6621 29.3555 15C29.3555 14.3379 28.8223 13.8047 28.1602 13.8047Z" fill="#F2F2F2"/>
<path d="M3.1875 13.8047H1.83984C1.17773 13.8047 0.644531 14.3379 0.644531 15C0.644531 15.6621 1.17773 16.1953 1.83984 16.1953H3.18164C3.84375 16.1953 4.37695 15.6621 4.37695 15C4.38281 14.3379 3.84375 13.8047 3.1875 13.8047Z" fill="#F2F2F2"/>
<path d="M23.4609 4.85156L22.5059 5.80078C22.0371 6.26953 22.0371 7.02539 22.5059 7.49414C22.9746 7.9629 23.7305 7.9629 24.1992 7.49414L25.1484 6.54492C25.6172 6.07617 25.6172 5.32031 25.1484 4.85156C24.6797 4.38281 23.9238 4.38281 23.4609 4.85156Z" fill="#F2F2F2"/>
<path d="M5.80078 22.5059L4.85156 23.4551C4.38281 23.9238 4.38281 24.6797 4.85156 25.1484C5.32031 25.6172 6.07617 25.6172 6.54492 25.1484L7.49414 24.1992C7.9629 23.7305 7.9629 22.9746 7.49414 22.5059C7.02539 22.0371 6.26953 22.043 5.80078 22.5059Z" fill="#F2F2F2"/>
<path d="M24.1992 22.5059C23.7305 22.0371 22.9746 22.0371 22.5059 22.5059C22.0371 22.9746 22.0371 23.7305 22.5059 24.1992L23.4551 25.1484C23.9238 25.6172 24.6797 25.6172 25.1484 25.1484C25.6172 24.6797 25.6172 23.9238 25.1484 23.4551L24.1992 22.5059Z" fill="#F2F2F2"/>
<path d="M5.80078 7.49414C6.26953 7.9629 7.02539 7.9629 7.49414 7.49414C7.9629 7.02539 7.9629 6.26953 7.49414 5.80078L6.54492 4.85156C6.07617 4.38281 5.32031 4.38281 4.85156 4.85156C4.38281 5.32031 4.38281 6.07617 4.85156 6.54492L5.80078 7.49414Z" fill="#F2F2F2"/>
</svg>
