<svg width="48" height="48" viewBox="0 0 48 48" fill="none" xmlns="http://www.w3.org/2000/svg">
<path d="M23.9262 0C10.7077 0 0 10.6338 0 23.7785C0 28.9477 1.69846 33.8215 4.57846 37.7354L1.55077 46.5969L10.7815 43.6431C14.5477 46.1538 19.1262 47.5569 24 47.5569C37.2185 47.5569 48 36.9231 48 23.7785C47.9262 10.6338 37.1446 0 23.9262 0ZM37.9569 33.6C37.3662 35.2246 34.4862 36.7754 33.2308 36.9231C31.9754 37.0708 31.9754 37.9569 24.8123 35.2246C17.7231 32.4185 13.2185 25.2554 12.8492 24.7385C12.48 24.2954 9.96923 20.9723 9.96923 17.5754C9.96923 14.1785 11.7415 12.48 12.4062 11.8154C13.0708 11.1508 13.8092 10.9292 14.2523 10.9292C14.6954 10.9292 15.2123 11.0031 15.5815 11.0031C16.0246 11.0031 16.5415 10.7815 17.1323 12.1846C17.7231 13.5877 19.1262 16.9846 19.2738 17.3538C19.4215 17.7231 19.5692 18.0923 19.3477 18.5354C19.1262 18.9785 18.9785 19.2738 18.6831 19.7169C18.3138 20.0862 17.9446 20.6031 17.6492 20.8985C17.28 21.2677 16.9108 21.6369 17.3538 22.3015C17.7969 22.9662 19.2 25.2554 21.2677 27.1015C23.9262 29.4646 26.2154 30.2031 26.88 30.5723C27.5446 30.9415 27.9877 30.8677 28.3569 30.4246C28.8 29.9815 30.1292 28.4308 30.5723 27.6923C31.0154 27.0277 31.5323 27.1015 32.1231 27.3231C32.7877 27.5446 36.1846 29.2431 36.9231 29.6123C37.5877 29.9815 38.1046 30.1292 38.2523 30.4246C38.4738 30.5723 38.4738 31.9754 37.9569 33.6Z" fill="white"/>
</svg>
