<svg width="29" height="30" viewBox="0 0 29 30" fill="none" xmlns="http://www.w3.org/2000/svg">
<path d="M14.3714 21.4792V17.6532" stroke="#E8E8E8" stroke-width="1.5" stroke-linecap="round" stroke-linejoin="round"/>
<path d="M27.6226 14.1427L27.5805 14.1732C24.0646 16.3454 19.4221 17.6572 14.3645 17.6572C9.30685 17.6572 4.67745 16.3454 1.16294 14.1732L1.11938 14.1427" stroke="#E8E8E8" stroke-width="1.5" stroke-linecap="round" stroke-linejoin="round"/>
<path fill-rule="evenodd" clip-rule="evenodd" d="M1 16.8698C1 7.91326 4.34322 4.92725 14.3714 4.92725C24.401 4.92725 27.7428 7.91326 27.7428 16.8698C27.7428 25.8264 24.401 28.8124 14.3714 28.8124C4.34322 28.8124 1 25.8264 1 16.8698Z" stroke="#E8E8E8" stroke-width="1.5" stroke-linecap="round" stroke-linejoin="round"/>
<path d="M19.1078 5.24985V4.33261C19.1078 2.49232 17.7679 1 16.1173 1H12.626C10.9754 1 9.6355 2.49232 9.6355 4.33261V5.24985" stroke="#E8E8E8" stroke-width="1.5" stroke-linecap="round" stroke-linejoin="round"/>
</svg>
